<svg width="16" height="17" viewBox="0 0 16 17" fill="none" xmlns="http://www.w3.org/2000/svg">
<path d="M14 8.33342H1.99998C1.35998 8.33342 0.833313 7.80676 0.833313 7.16676V4.95342C0.833313 4.50008 1.14663 4.04009 1.56663 3.87342L7.56663 1.47344C7.81996 1.37344 8.18 1.37344 8.43333 1.47344L14.4333 3.87342C14.8533 4.04009 15.1666 4.50675 15.1666 4.95342V7.16676C15.1666 7.80676 14.64 8.33342 14 8.33342ZM7.99998 2.39344C7.97331 2.39344 7.94666 2.39341 7.93333 2.40007L1.93996 4.8001C1.89996 4.8201 1.83331 4.90675 1.83331 4.95342V7.16676C1.83331 7.26009 1.90665 7.33342 1.99998 7.33342H14C14.0933 7.33342 14.1666 7.26009 14.1666 7.16676V4.95342C14.1666 4.90675 14.1067 4.8201 14.06 4.8001L8.06 2.40007C8.04666 2.39341 8.02665 2.39344 7.99998 2.39344Z" fill="white"/>
<path d="M14.6666 15.6667H1.33331C1.05998 15.6667 0.833313 15.44 0.833313 15.1667V13.1667C0.833313 12.5267 1.35998 12 1.99998 12H14C14.64 12 15.1666 12.5267 15.1666 13.1667V15.1667C15.1666 15.44 14.94 15.6667 14.6666 15.6667ZM1.83331 14.6667H14.1666V13.1667C14.1666 13.0733 14.0933 13 14 13H1.99998C1.90665 13 1.83331 13.0733 1.83331 13.1667V14.6667Z" fill="white"/>
<path d="M2.66669 13.0002C2.39335 13.0002 2.16669 12.7735 2.16669 12.5002V7.8335C2.16669 7.56016 2.39335 7.3335 2.66669 7.3335C2.94002 7.3335 3.16669 7.56016 3.16669 7.8335V12.5002C3.16669 12.7735 2.94002 13.0002 2.66669 13.0002Z" fill="white"/>
<path d="M5.33331 13.0002C5.05998 13.0002 4.83331 12.7735 4.83331 12.5002V7.8335C4.83331 7.56016 5.05998 7.3335 5.33331 7.3335C5.60665 7.3335 5.83331 7.56016 5.83331 7.8335V12.5002C5.83331 12.7735 5.60665 13.0002 5.33331 13.0002Z" fill="white"/>
<path d="M8 13.0002C7.72667 13.0002 7.5 12.7735 7.5 12.5002V7.8335C7.5 7.56016 7.72667 7.3335 8 7.3335C8.27333 7.3335 8.5 7.56016 8.5 7.8335V12.5002C8.5 12.7735 8.27333 13.0002 8 13.0002Z" fill="white"/>
<path d="M10.6667 13.0002C10.3934 13.0002 10.1667 12.7735 10.1667 12.5002V7.8335C10.1667 7.56016 10.3934 7.3335 10.6667 7.3335C10.94 7.3335 11.1667 7.56016 11.1667 7.8335V12.5002C11.1667 12.7735 10.94 13.0002 10.6667 13.0002Z" fill="white"/>
<path d="M13.3333 13.0002C13.06 13.0002 12.8333 12.7735 12.8333 12.5002V7.8335C12.8333 7.56016 13.06 7.3335 13.3333 7.3335C13.6066 7.3335 13.8333 7.56016 13.8333 7.8335V12.5002C13.8333 12.7735 13.6066 13.0002 13.3333 13.0002Z" fill="white"/>
<path d="M15.3334 15.6665H0.666687C0.393354 15.6665 0.166687 15.4398 0.166687 15.1665C0.166687 14.8932 0.393354 14.6665 0.666687 14.6665H15.3334C15.6067 14.6665 15.8334 14.8932 15.8334 15.1665C15.8334 15.4398 15.6067 15.6665 15.3334 15.6665Z" fill="white"/>
<path d="M8 6.6665C7.17333 6.6665 6.5 5.99317 6.5 5.1665C6.5 4.33984 7.17333 3.6665 8 3.6665C8.82667 3.6665 9.5 4.33984 9.5 5.1665C9.5 5.99317 8.82667 6.6665 8 6.6665ZM8 4.6665C7.72667 4.6665 7.5 4.89317 7.5 5.1665C7.5 5.43984 7.72667 5.6665 8 5.6665C8.27333 5.6665 8.5 5.43984 8.5 5.1665C8.5 4.89317 8.27333 4.6665 8 4.6665Z" fill="white"/>
</svg>
