<svg width="16" height="17" viewBox="0 0 16 17" fill="none" xmlns="http://www.w3.org/2000/svg">
<path d="M8.00665 11.8334C7.43998 11.8334 6.86665 11.6867 6.41998 11.4L2.40665 8.78002C1.65998 8.29336 1.21332 7.47336 1.21332 6.58002C1.21332 5.68669 1.65998 4.86669 2.40665 4.38002L6.42665 1.76669C7.31998 1.18669 8.71332 1.18669 9.59998 1.77336L13.5933 4.39336C14.3333 4.88002 14.78 5.70002 14.78 6.58669C14.78 7.47336 14.3333 8.29336 13.5933 8.78002L9.59998 11.4C9.15332 11.6934 8.57998 11.8334 8.00665 11.8334ZM8.00665 2.33336C7.62665 2.33336 7.24665 2.42002 6.97332 2.60669L2.95998 5.22002C2.49332 5.52669 2.21998 6.02002 2.21998 6.58002C2.21998 7.14002 2.48665 7.63336 2.95998 7.94002L6.97332 10.56C7.52665 10.92 8.49998 10.92 9.05332 10.56L13.0467 7.94002C13.5133 7.63336 13.78 7.14002 13.78 6.58002C13.78 6.02002 13.5133 5.52669 13.0467 5.22002L9.05332 2.60002C8.77332 2.42669 8.39332 2.33336 8.00665 2.33336Z" fill="white"/>
<path d="M8.00002 15.6669C7.70669 15.6669 7.40669 15.6269 7.16669 15.5469L5.04002 14.8402C4.03335 14.5069 3.24002 13.4069 3.24668 12.3469L3.25335 9.22021C3.25335 8.94688 3.48002 8.72021 3.75335 8.72021C4.02669 8.72021 4.25335 8.94688 4.25335 9.22021L4.24668 12.3469C4.24668 12.9735 4.76669 13.6935 5.36002 13.8935L7.48668 14.6002C7.75335 14.6869 8.24669 14.6869 8.51335 14.6002L10.64 13.8935C11.2334 13.6935 11.7534 12.9735 11.7534 12.3535V9.26022C11.7534 8.98688 11.98 8.76022 12.2534 8.76022C12.5267 8.76022 12.7534 8.98688 12.7534 9.26022V12.3535C12.7534 13.4135 11.9667 14.5069 10.96 14.8469L8.83335 15.5535C8.59335 15.6269 8.29335 15.6669 8.00002 15.6669Z" fill="white"/>
<path d="M14.2667 11C13.9933 11 13.7667 10.7733 13.7667 10.5V6.5C13.7667 6.22667 13.9933 6 14.2667 6C14.54 6 14.7667 6.22667 14.7667 6.5V10.5C14.7667 10.7733 14.54 11 14.2667 11Z" fill="white"/>
</svg>
